<svg version="1.2" xmlns="http://www.w3.org/2000/svg" viewBox="0 0 1312 297" width="1312" height="297">
	<title>kho-sach-247-logo-svg</title>
	<style>
		.s0 { fill: #f5f5f5 } 
		.s1 { opacity: .6;fill: #bababa } 
		.s2 { fill: #246c8e } 
		.s3 { mix-blend-mode: multiply;fill: #e75f44 } 
		.s4 { fill: none;stroke: #e2e2e2;stroke-linecap: round;stroke-miterlimit:10;stroke-width: 2 } 
		.s5 { mix-blend-mode: multiply;fill: #eeb331 } 
		.s6 { mix-blend-mode: multiply;fill: #049aa8 } 
		.s7 { fill: #ffffff } 
	</style>
	<g id="BACKGROUND">
		<g id="&lt;Group&gt;">
			<g id="&lt;Group&gt;">
				<g id="&lt;Group&gt;">
					<path id="&lt;Path&gt;" class="s0" d="m149.8 281.1c-10.2-1.5-23.9-5.1-42.6-11.9-33.7-12.3-54.4-15.9-66.4-19.3-7.5-2.1-11.6-4.2-13.3-8.4q-0.3-0.6-0.5-1.4c-3.2-12.4 0.2-31.4 0.2-31.4l26.8-17.1 158.7-101.9c21.3 5 31.6 12.5 24.9 31.2-6.6 18.8-46.9 137.9-55 149.1-5.4 7.5-11.9 14-32.8 11.1z"/>
				</g>
				<path id="&lt;Path&gt;" class="s1" d="m170.8 273.9c-3.1 1.9-11.1 5.2-21 7.2-10.2-1.5-23.9-5.1-42.6-11.9-33.7-12.3-54.4-15.9-66.4-19.3-4.3-2.9-9.1-5.8-13.3-8.4q-0.3-0.6-0.5-1.4c-3.2-12.4 0.2-31.4 0.2-31.4l7.5 0.7 129.1 32.1c0 0 13.1 28.7 7 32.4z"/>
				<g id="&lt;Group&gt;">
					<path id="&lt;Path&gt;" class="s2" d="m239.1 133.7c0 0-37.5 138.7-60.8 152.6-18.4 11.1-144.2-27.3-155-39.2-10.7-11.8-1.2-36.4-1.2-36.4l7.5 1.9c0 0 0.9 12.3 0.2 22.1-0.8 9.7 5.9 9.4 36.5 18.1 30.6 8.6 79 20.5 92 21.5 13 0.9 22.4-8.4 27.6-25.4 5.1-17 46.4-128.3 48.5-137 2.1-8.8-18.4-13.8-18.4-13.8l3.6-9.8c0 0 18.7 5.7 23.8 14.3 5.2 8.6-1.8 24-4.3 31.1z"/>
				</g>
				<g id="&lt;Group&gt;">
					<path id="&lt;Path&gt;" class="s3" d="m101.8 47l119.7 36.1-57.7 158.4-141.7-30.8z"/>
				</g>
				<g id="&lt;Group&gt;">
					<path id="&lt;Path&gt;" fill-rule="evenodd" class="s4" d="m47.5 230.7l88.4 21.2"/>
				</g>
				<g id="&lt;Group&gt;">
					<path id="&lt;Path&gt;" class="s5" d="m103.1 43.1c55.1 9.8 81.7-11.3 96.3-22.3 0 0-33.4 141-54 176-20.5 35.1-102.2 17.5-123.3 13.9z"/>
				</g>
				<g id="&lt;Group&gt;">
					<path id="&lt;Path&gt;" class="s6" d="m103.3 38.4c26.3-1.5 57.8-34.8 57.8-34.8 0 0-48.7 160.9-71.9 191.5-23.3 30.6-67.1 15.6-67.1 15.6z"/>
				</g>
				<g id="&lt;Group&gt;">
					<path id="&lt;Path&gt;" class="s2" d="m86.4 38.4c13.5 0.9 35.2-31.1 35.2-31.1 0 0-59.4 165.4-69.4 185.4-9.9 19.9-30.1 18-30.1 18z"/>
				</g>
			</g>
		</g>
		<path id="Kho Sách" class="s7" aria-label="Kho Sách"  d="m372.1 91.6c-14.8 0-20.7 0.6-25.1 3.2-23.5 13.4-30.8 32.3-30.8 56.6l11.7-9.2c0-29.2 8-41.3 29.6-41.3h13.6c-6 9.7-7.8 42.3-18.2 96.2-2.4 12-5.9 13.9-11 13.9-4.6 0-9.6-0.7-13-1.5l-7.9 10.9h10.3c18.4 0 31.6-12.4 36.4-38.6 2.7-15.1 7.3-58.3 12.7-76 2.1-6.9 5.8-12.4 7.8-13.7l-0.1-0.5zm6.3 69.8c15.8 26.2 34.3 53.2 56 76.8l6-5.9c-16-21.5-36.6-55.8-50.3-84.5 0-13.8 7.3-45.2 28.5-45.2 3.8 0 7.8 1 12.1 3.2l12.7-8.5c-3.2-4.2-7.8-6.1-12.7-6.1-8.8 0-52.3 14.3-52.3 70.2zm-10.8-69.8c-14.8 0-20.7 0.6-25.2 3.2-23.4 13.4-30.7 32.3-30.7 56.6l11.7-9.2c0-29.2 8-41.3 29.6-41.3h13.6c-6 9.7-7.8 42.3-18.2 96.2-2.4 12-6 13.9-11 13.9-4.6 0-9.6-0.7-13-1.5l-7.9 10.9h10.3c18.4 0 31.6-12.4 36.4-38.6 2.7-15.1 7.3-58.3 12.7-76 2.1-6.9 5.8-12.4 7.8-13.7l-0.1-0.5zm6.3 69.8c15.8 26.2 34.3 53.2 56 76.8l6-5.9c-16-21.5-36.6-55.8-50.3-84.5 0-13.8 7.3-45.2 28.5-45.2 3.8 0 7.8 1 12.1 3.2l12.7-8.5c-3.2-4.2-7.8-6.1-12.7-6.1-8.8 0-52.3 14.3-52.3 70.2zm127.1-87c-19 0-37 23.3-39.6 41.6l-12.4 90.6c-0.2 1-0.3 2.2-0.3 3.2 0 3.9 1.2 7.8 3.9 10.9 10.9-34.3 29.4-62 42.3-73.6 0 23.6-7.8 45.2-7.8 67.1 0 2.3 0.1 4.5 0.3 6.5 12.1-5.1 30.8-27.9 45.4-49.1l-1.7-1.2c-11.2 15.6-25.3 32.3-35.7 39.8l-0.3-0.4c4-22.9 12.2-43.1 12.2-64.4 0-5.2-0.7-12-2.9-13.7-13.8 6.4-29.6 32.1-42.5 55.4l7.7-58.2c1.8-14.1 3-45.5 22.1-45.5 5.1 0 8.3 0.5 10.7 1l6.9-9.1c-2-0.6-5.6-0.9-8.3-0.9zm-4.5 0c-19 0-37 23.3-39.6 41.6l-12.4 90.6c-0.1 1-0.3 2.2-0.3 3.2 0 3.9 1.2 7.8 3.9 10.9 10.9-34.3 29.4-62 42.3-73.6 0 23.6-7.8 45.2-7.8 67.1 0 2.3 0.2 4.5 0.3 6.5 12.1-5.1 30.8-27.9 45.4-49.1l-1.7-1.2c-11.2 15.6-25.3 32.3-35.7 39.8l-0.3-0.4c4.1-22.9 12.2-43.1 12.2-64.4 0-5.2-0.7-12-2.9-13.7-13.7 6.4-29.5 32.1-42.5 55.4l7.7-58.2c1.9-14.1 3.1-45.5 22.1-45.5 5.1 0 8.3 0.5 10.7 1l7-9.1c-2.1-0.6-5.7-0.9-8.4-0.9zm69.8 57.6c-21.5 6.1-40.5 32.1-40.5 56.8 0 11.2 4.6 27.5 13.9 31.7 21.5-6.1 40.5-33.4 40.5-56.7 0-10.4-5.1-27.5-13.9-31.8zm-4.6 6.8c6.9 12.6 7.3 22.8 7.3 33.3 0 19.5-7.2 34.2-24.7 41.6-6.9-12.5-7.3-22.7-7.3-33.3 0-19.3 6.7-33.4 24.7-41.6zm0.1-6.8c-21.4 6.1-40.5 32.1-40.5 56.8 0 11.2 4.6 27.5 14 31.7 21.4-6.1 40.4-33.4 40.4-56.7 0-10.4-5.1-27.5-13.9-31.8zm-4.6 6.8c7 12.6 7.3 22.8 7.3 33.3 0 19.5-7.1 34.2-24.6 41.6-7-12.5-7.4-22.7-7.4-33.3 0-19.3 6.7-33.4 24.7-41.6zm140.4-48.9c-20.7 0-38.9 13.4-38.9 31.2 0 21.3 34.3 44.5 34.3 67 0 10.5-10.9 22.6-21.9 22.6-8 0-18.7-4.6-25.7-9l-9.7 10.8c5.3 4.1 14.7 7.9 25.9 7.9 23.4 0 41.8-21.6 41.8-46.6 0-20-35.4-45-35.4-63.7 0-6.1 6.7-9.7 21.6-9.7 7.7 0 15.6 1.9 22.8 5.1l9.7-11.2c-9.2-3.4-16.9-4.4-24.5-4.4zm-4.5 0c-20.7 0-38.9 13.4-38.9 31.2 0 21.3 34.3 44.5 34.3 67 0 10.5-10.8 22.6-21.9 22.6-8 0-18.7-4.6-25.6-9l-9.7 10.8c5.2 4.1 14.6 7.9 25.8 7.9 23.4 0 41.8-21.6 41.8-46.6 0-20-35.4-45-35.4-63.7 0-6.1 6.7-9.7 21.6-9.7 7.7 0 15.7 1.9 22.8 5.1l9.7-11.2c-9.2-3.4-16.8-4.4-24.5-4.4zm78.4 44.1c-22.4 0-32.4 14-38.4 35.4-2.5 9.2-4.2 21.6-4.2 32.9 0 7.2 0.6 14 2.2 19.2 17-14.9 27.7-31.2 39.9-51.8l0.5 0.4c-3.1 18.1-6.6 27.2-6.6 44.1 0 2.3 0 4.5 0.1 6.5 12.1-5.1 30.8-27.9 45.4-49.1l-1.7-1.2c-11.2 15.6-25.3 32.3-35.7 39.8l-0.5-0.4c5.3-16.1 8-31.9 10.2-46.5 0.9-5.3 2.6-14 4.3-23.5l1-4.9c-4.3-0.9-9.2-0.9-16.5-0.9zm-30.2 37.1c2.8-22.8 5.2-28.4 23.9-28.4 3.9 0 8.2 0.4 10.6 1 0 11.2-19.4 44-26 52.4-1.9 2.5-7.4 11.5-9.4 11.5-0.7-2-1-5.6-1-9.8 0-11.3 1.9-26.7 1.9-26.7zm60.3-80.9c-5-0.2-10 0.7-14.6 3.4-7.9 4.8-13.1 11.7-22.1 24.5l2.4 2.9c5.2-6.2 12-13.8 21-19.6 3.6-2.2 8.2-4.1 10.7-4.6zm-34.5 43.9c-22.5 0-32.5 13.9-38.4 35.3-2.6 9.2-4.3 21.6-4.3 33 0 7.1 0.7 13.9 2.2 19.2 17-15 27.7-31.3 40-51.8l0.5 0.3c-3.1 18.2-6.7 27.2-6.7 44.2 0 2.2 0 4.4 0.2 6.4 12.1-5.1 30.8-27.8 45.4-49.1l-1.7-1.2c-11.2 15.7-25.3 32.3-35.7 39.8l-0.5-0.3c5.3-16.2 8-32 10.2-46.6 0.8-5.3 2.5-13.9 4.2-23.5l1.1-4.9c-4.3-0.8-9.2-0.8-16.5-0.8zm-30.3 37c2.9-22.8 5.3-28.4 24-28.4 3.9 0 8.1 0.4 10.5 1.1 0 11.2-19.3 44-26 52.3-1.8 2.5-7.3 11.5-9.3 11.5-0.7-2-1-5.6-1-9.8 0-11.2 1.8-26.7 1.8-26.7zm60.3-80.9c-4.9-0.1-10 0.7-14.6 3.4-7.8 4.8-13 11.8-22.1 24.5l2.4 2.9c5.3-6.1 12.1-13.8 21.1-19.6 3.6-2.2 8.2-4 10.7-4.5zm45.6 41.4c-10.2 0-39.1 21.3-39.1 56.1 0 28.9 12.1 33 16.3 33 12.9-5.5 33.5-31.1 48.5-53.6l-1.7-1c-11.6 16.7-27.4 36.2-40.3 45.5-8.2-4.4-11.2-14.7-11.2-26.1 0-23.1 10.2-47.1 23.1-47.1 4.1 0 7.5 2.1 10.2 6.6l7.5-8.8c-2.4-2.2-7-4.6-13.3-4.6zm-4.5 0c-10.2 0-39.1 21.3-39.1 56.1 0 28.9 12.1 33 16.3 33 13-5.5 33.5-31.1 48.5-53.6l-1.7-1c-11.6 16.7-27.4 36.2-40.3 45.5-8.1-4.4-11.2-14.7-11.2-26.1 0-23.1 10.2-47.1 23.1-47.1 4.1 0 7.5 2.1 10.2 6.6l7.5-8.8c-2.4-2.2-7-4.6-13.3-4.6zm78.1-57.2c-19.1 0-37.1 23.2-39.6 41.6l-12.4 90.5c-0.2 1.1-0.4 2.3-0.4 3.3 0 3.9 1.2 7.8 3.9 10.9 10.9-34.4 29.4-62.1 42.4-73.6 0 23.6-7.9 45.2-7.9 67.1 0 2.2 0.2 4.4 0.4 6.5 12-5.1 30.7-27.9 45.3-49.2l-1.7-1.1c-11.2 15.6-25.3 32.2-35.6 39.7l-0.4-0.3c4.1-23 12.3-43.2 12.3-64.4 0-5.3-0.7-12.1-2.9-13.8-13.8 6.5-29.6 32.1-42.5 55.4l7.6-58.1c1.9-14.1 3.1-45.5 22.1-45.5 5.1 0 8.3 0.5 10.7 1l7-9.2c-2-0.5-5.6-0.8-8.3-0.8zm-4.5 0c-19 0-37.1 23.2-39.6 41.6l-12.4 90.5c-0.2 1.1-0.3 2.3-0.3 3.3 0 3.9 1.1 7.8 3.9 10.9 10.8-34.4 29.4-62.1 42.3-73.6 0 23.6-7.8 45.2-7.8 67.1 0 2.2 0.1 4.4 0.3 6.5 12.1-5.1 30.7-27.9 45.4-49.2l-1.7-1.1c-11.3 15.6-25.4 32.2-35.7 39.7l-0.4-0.3c4.1-23 12.3-43.2 12.3-64.4 0-5.3-0.7-12.1-2.9-13.8-13.8 6.5-29.6 32.1-42.5 55.4l7.7-58.1c1.8-14.1 3-45.5 22-45.5 5.1 0 8.4 0.5 10.7 1l7-9.2c-2-0.5-5.6-0.8-8.3-0.8z"/>
		<path id="2" class="s7" aria-label="2"  d="m1052.5 82.7c-15.1 0-28.8 4.9-48.6 19.7l2.9 4.2c9.8-5.2 24.9-10.4 37.1-10.4 12.8 0 23.2 5.5 23.2 22.6 0 9.9-5 21.1-12.8 30.9-18.4 23.7-39.5 40.8-59.5 56.9-2.8 2.4-5.7 3.9-8.8 5.5l1.8 3.9 84.2 0.3c9.9-7.6 15.6-12.3 28.3-22.9l-2.1-3.9c-9.8 7-21.8 10.1-34.5 10.1h-45.2l-0.6-1.5c13.6-10.4 31-26 44-42.4 11.4-14.3 19.5-30.1 19.5-46.2 0-19.5-14.1-26.8-28.9-26.8z"/>
		<path id="47" class="s7" aria-label="47"  d="m1156 174.3c-13.4 0.4-26.2-0.5-39.1 0.6l-0.6-0.6c17-17.5 42.1-54.1 52-78.6l0.4 0.6c-3.3 26.4-8.2 51.2-12.7 78zm21.7-94c-5.1 3.1-10.2 7.2-15 13-11.7 26.1-50.5 79.3-62.5 88.4l1.5 2.8c3.9-0.6 7.6-1 11.5-1 15 0 28.2 0 41.3 0-2.7 19.7-3.7 26.5-4.1 31.9-0.4 4.1 0.4 6.1 1.4 7l9.9-12.4c1.7-8.6 2.9-15.6 4.7-26.9 16.3-1.2 27-4.5 34.4-8.8l-1.1-3.1c-8.4 1.6-21.3 2.6-31.6 2.6 5.7-28.1 13.1-64.1 13.1-87.1 0-4.5-1.4-6.4-3.5-6.4zm80.6 4.1c-14.6 0-28.8-0.8-42.9-1.8l-7.8 16.6c3.9 0.4 7.8 0.4 11.7 0.4 17 0 33.9-2.2 50.5-2.8l1.3 2.6c-23 33.3-38.9 74.6-51.2 117l1.8 2.1 16.5-9.1c5.1-25.7 24.4-81.6 46.6-123.7l-1.6-2.1c-8.4 0.6-16.9 0.8-24.9 0.8z"/>
	</g>
</svg>