<svg version="1.2" xmlns="http://www.w3.org/2000/svg" viewBox="0 0 1959 300" width="1959" height="300">
	<title>kho-sach-247-logo-svg</title>
	<style>
		.s0 { fill: #f5f5f5 } 
		.s1 { opacity: .6;fill: #bababa } 
		.s2 { fill: #246c8e } 
		.s3 { mix-blend-mode: multiply;fill: #e75f44 } 
		.s4 { fill: none;stroke: #e2e2e2;stroke-linecap: round;stroke-miterlimit:10;stroke-width: 2 } 
		.s5 { mix-blend-mode: multiply;fill: #eeb331 } 
		.s6 { mix-blend-mode: multiply;fill: #049aa8 } 
		.s7 { fill: #ffffff } 
	</style>
	<g id="BACKGROUND">
		<g id="&lt;Group&gt;">
			<g id="&lt;Group&gt;">
				<g id="&lt;Group&gt;">
					<path id="&lt;Path&gt;" class="s0" d="m142.8 282.1c-10.2-1.5-23.9-5.1-42.6-11.9-33.7-12.3-54.4-15.9-66.4-19.3-7.5-2.1-11.6-4.2-13.3-8.4q-0.3-0.6-0.5-1.4c-3.2-12.4 0.2-31.4 0.2-31.4l26.8-17.1 158.7-101.9c21.3 5 31.6 12.5 24.9 31.2-6.6 18.8-46.9 137.9-55 149.1-5.4 7.5-11.9 14-32.8 11.1z"/>
				</g>
				<path id="&lt;Path&gt;" class="s1" d="m163.8 274.9c-3.1 1.9-11.1 5.2-21 7.2-10.2-1.5-23.9-5.1-42.6-11.9-33.7-12.3-54.4-15.9-66.4-19.3-4.3-2.9-9.1-5.8-13.3-8.4q-0.3-0.6-0.5-1.4c-3.2-12.4 0.2-31.4 0.2-31.4l7.5 0.7 129.1 32.1c0 0 13.1 28.7 7 32.4z"/>
				<g id="&lt;Group&gt;">
					<path id="&lt;Path&gt;" class="s2" d="m232.1 134.7c0 0-37.5 138.7-60.8 152.6-18.4 11.1-144.2-27.3-155-39.2-10.7-11.8-1.2-36.4-1.2-36.4l7.5 1.9c0 0 0.9 12.3 0.2 22.1-0.8 9.7 5.9 9.4 36.5 18.1 30.6 8.6 79 20.5 92 21.5 13 0.9 22.4-8.4 27.6-25.4 5.1-17 46.4-128.3 48.5-137 2.1-8.8-18.4-13.8-18.4-13.8l3.6-9.8c0 0 18.7 5.7 23.8 14.3 5.2 8.6-1.8 24-4.3 31.1z"/>
				</g>
				<g id="&lt;Group&gt;">
					<path id="&lt;Path&gt;" class="s3" d="m94.8 48l119.7 36.1-57.7 158.4-141.7-30.8z"/>
				</g>
				<g id="&lt;Group&gt;">
					<path id="&lt;Path&gt;" fill-rule="evenodd" class="s4" d="m40.5 231.7l88.4 21.2"/>
				</g>
				<g id="&lt;Group&gt;">
					<path id="&lt;Path&gt;" class="s5" d="m96.1 44.1c55.1 9.8 81.7-11.3 96.3-22.3 0 0-33.4 141-54 176-20.5 35.1-102.2 17.5-123.3 13.9z"/>
				</g>
				<g id="&lt;Group&gt;">
					<path id="&lt;Path&gt;" class="s6" d="m96.3 39.4c26.3-1.5 57.8-34.8 57.8-34.8 0 0-48.7 160.9-71.9 191.5-23.3 30.6-67.1 15.6-67.1 15.6z"/>
				</g>
				<g id="&lt;Group&gt;">
					<path id="&lt;Path&gt;" class="s2" d="m79.4 39.4c13.5 0.9 35.2-31.1 35.2-31.1 0 0-59.4 165.4-69.4 185.4-9.9 19.9-30.1 18-30.1 18z"/>
				</g>
			</g>
			<path id="Kho Sách 247" class="s7" aria-label="Kho Sách 247"  d="m366.3 245h-57.1l1.5-8.4q9.7-0.5 14-4.3 4.3-4.1 5.8-10.9 1.8-7.1 3.4-16l19.9-109.7q1-5.1 2.1-9.7 1.1-4.8 2-8.6-4.6 0.3-9.2 0.5-4.6 0.3-9.2 0.5l2-11.2h57.1l-1.5 8.4q-9.4 0.3-14 4.3-4.3 4.1-6 11-1.5 6.8-3.2 16l-7.6 41.6h19.1l40.8-50q4.2-5.1 10.2-11.2 5.9-6.1 11.7-10.1-3.8 0.2-7.9 0.2-3.8 0-7.7 0.3l1.9-10.5h54.6l-1.5 8.4q-10.8 0.8-19.7 3.6-8.9 2.8-17.8 9.9-8.8 6.8-20 20.8l-32.1 39.6q6.6 4.3 10.1 10.2 3.5 5.6 7 11.4l21.6 37.8q7.3 12.7 12.3 18.8 5.3 5.9 9.8 7.4 4.8 1.5 10.2 1.5l-1.5 8.4h-31q-2.6 0-6.2-3.6-3.4-3.5-7.3-9.1-3.7-5.8-7.6-12.2l-23-41.1q-3.7-6.4-7.5-12-3.8-5.8-7.8-8.6l-12.5 0.3-10.2 56.1q-1.3 6.8-2.5 11.9-0.8 4.8-1.9 8.1 4.6-0.2 9.2-0.5 4.6-0.2 9.2-0.5zm-6.7 0h-57.1l1.5-8.4q9.8-0.5 14-4.3 4.3-4 5.8-10.9 1.8-7.1 3.4-16l20-109.7q0.9-5.1 2-9.6 1.1-4.9 2.1-8.7-4.6 0.3-9.3 0.5-4.6 0.3-9.2 0.5l2-11.1h57.2l-1.6 8.4q-9.4 0.2-13.9 4.3-4.3 4-6.1 10.9-1.5 6.8-3.2 16l-7.5 41.6h19l40.9-50q4.2-5.1 10.1-11.2 5.9-6.1 11.8-10.1-3.9 0.2-8 0.2-3.8 0-7.6 0.3l1.9-10.4h54.6l-1.6 8.4q-10.8 0.7-19.6 3.5-8.9 2.8-17.8 9.9-8.9 6.9-20.1 20.8l-32.1 39.6q6.6 4.4 10.1 10.2 3.6 5.6 7.1 11.4l21.5 37.9q7.4 12.7 12.4 18.8 5.2 5.8 9.8 7.3 4.8 1.5 10.1 1.5l-1.5 8.4h-31q-2.5 0-6.2-3.5-3.4-3.6-7.2-9.2-3.8-5.8-7.7-12.2l-23-41.1q-3.7-6.3-7.5-11.9-3.7-5.9-7.8-8.7l-12.5 0.3-10.2 56.1q-1.2 6.9-2.4 11.9-0.9 4.9-2 8.2 4.6-0.3 9.2-0.5 4.6-0.3 9.3-0.5zm208.5 0l1.4-7.7q7.9 0 11.6-3.8 3.8-4 5.6-10.9 1.8-7.1 3.4-16.2l6.5-35.6q4-21.8-1.1-32.8-4.9-10.9-19.9-10.6-9.5 0.2-19.4 4.6-9.7 4.3-16.5 11.1l-13.6 74.9q-1 5.1-2 9.2-0.9 3.8-2.5 8.1 4.2-0.2 8-0.2 4.1-0.3 8.2-0.6l-1.9 10.5h-51.8l1.4-7.7q7.8 0 11.6-3.8 3.8-4 5.5-10.9 2.1-7.1 3.7-16.2l21.9-120.2q0.7-4 1.4-7.6 0.9-3.8 2.4-8.9-4.7 0.3-9.3 0.5-4.3 0.3-9 0.6l2-10.7q11.2 0 17.4-1 6.6-1 9.9-2.6 3.6-1.5 5.7-3.3h7.3l-14.1 77.5q6.5-4.8 14-8.4 7.8-3.8 15.6-6.1 8-2.3 15.1-2.3 22.1 0 29.2 14 7.5 13.7 2.4 42.9l-8.3 47.2q-1 5.1-2 9.2-0.7 3.8-2.2 8.1 4.1-0.2 7.9-0.2 4.1-0.3 8.2-0.6l-1.9 10.5zm-6.7 0l1.4-7.7q7.9 0 11.6-3.8 3.8-4 5.6-10.9 1.8-7.1 3.4-16.2l6.5-35.6q4-21.8-1.1-32.8-4.9-10.9-19.9-10.6-9.5 0.2-19.4 4.6-9.7 4.3-16.5 11.1l-13.6 74.9q-1 5.1-2 9.2-0.9 3.8-2.5 8.1 4.2-0.2 8-0.2 4.1-0.3 8.2-0.6l-1.9 10.5h-51.8l1.4-7.7q7.8 0 11.6-3.8 3.8-4 5.5-10.9 2.1-7.1 3.7-16.2l21.9-120.2q0.7-4 1.4-7.6 0.9-3.8 2.4-8.9-4.6 0.3-9.3 0.5-4.3 0.3-8.9 0.6l1.9-10.7q11.2 0 17.4-1 6.6-1 9.9-2.6 3.6-1.5 5.7-3.3h7.3l-14 77.5q6.4-4.8 13.9-8.4 7.8-3.8 15.6-6.1 8-2.3 15.2-2.3 22 0 29.2 14 7.4 13.7 2.3 42.9l-8.3 47.2q-1 5.1-2 9.2-0.7 3.8-2.2 8.1 4.1-0.2 7.9-0.2 4.1-0.3 8.2-0.6l-1.9 10.5zm146.4 4q-17.8 0-30.7-8.1-13-8.4-19-22.9-5.7-14.7-2.3-33.5 3.7-20 15-36 11.3-16 27.4-25.2 16.2-9.4 34.2-9.4 17.8 0 30.7 8.7 12.9 8.3 18.9 22.8 6 14.5 2.7 33-3.6 19.6-15.2 35.8-11.3 16-27.5 25.4-16.1 9.4-34.2 9.4zm3.9-10.1q13.5 0 22.7-7.7 9.3-7.6 14.8-19.8 5.8-12.2 8.2-25.6 2.1-11.4 1.8-22.4 0-11.1-3-20-2.9-9.2-9.3-14.5-6.1-5.3-16.3-5.3-13.2 0-22.9 7.6-9.8 7.6-16.1 19.8-6 12.2-8.5 26.2-2.9 15.7-1.2 29.9 1.8 14 9.1 22.9 7.2 8.9 20.7 8.9zm-10.6 10.1q-17.7 0-30.7-8.1-13-8.4-19-22.9-5.7-14.7-2.3-33.5 3.7-20 15-36 11.3-16 27.4-25.2 16.2-9.4 34.2-9.4 17.8 0 30.7 8.7 12.9 8.3 18.9 22.8 6 14.5 2.7 33-3.6 19.6-15.2 35.8-11.3 16-27.5 25.4-16.1 9.4-34.2 9.4zm3.9-10.1q13.5 0 22.7-7.7 9.3-7.6 14.8-19.8 5.8-12.2 8.2-25.6 2.1-11.4 1.8-22.4 0-11.1-2.9-20-3-9.2-9.3-14.5-6.2-5.3-16.3-5.3-13.3 0-23 7.6-9.8 7.6-16.1 19.8-6 12.2-8.5 26.2-2.9 15.7-1.2 29.9 1.8 14 9.1 22.9 7.2 8.9 20.7 8.9zm303.9-117.9h-9.1q1.4-12.2-1.7-23.1-3.1-10.9-11.5-17.7-8.4-6.9-23.3-6.9-15.8 0-25.8 8.9-10 8.9-12.2 20.8-1.9 10.7 2.9 18 4.8 7.1 13.4 12.7 8.9 5.4 18.9 10.4 8.9 4.4 17.6 9.4 8.8 4.9 15.5 11.2 6.7 6.4 9.7 15.2 3.2 8.7 1 20.9-2.5 13.9-11.6 24.9-8.9 10.9-23.2 17.2-14.3 6.1-33.4 6.1-11.4 0-23-3.3-11.6-3.3-19.8-9.6l-0.8 10.9h-13.2l8.4-54.1h9.9q-2.8 22.3 9.3 34 12.1 11.5 32.2 11.5 9.9 0 18.9-3.6 9.1-3.8 15.2-10.9 6.4-7.1 8.2-17.3 2.1-11.4-2.6-19-4.7-7.7-13.4-13.2-8.6-5.6-18.6-10.7-8.9-4.3-17.4-9.1-8.5-4.9-15.3-11-6.4-6.3-9.7-14.9-3-8.7-0.8-20.9 1.2-6.6 4.9-14.2 3.7-7.6 10.5-14.5 7.2-7.1 17.9-11.4 10.9-4.6 26.4-4.6 9.7 0 21.1 2.8 11.7 2.6 20.8 10.2l0.9-10.9h13zm-6.7 0h-9.2q1.5-12.2-1.6-23.1-3.1-11-11.5-17.8-8.4-6.9-23.4-6.9-15.7 0-25.7 8.9-10 8.9-12.2 20.8-1.9 10.7 2.8 18.1 4.8 7.1 13.5 12.7 8.9 5.3 18.9 10.4 8.9 4.3 17.6 9.4 8.8 4.8 15.5 11.1 6.7 6.4 9.6 15.3 3.3 8.6 1.1 20.8-2.6 14-11.7 24.9-8.8 10.9-23.2 17.3-14.3 6.1-33.3 6.1-11.4 0-23-3.3-11.6-3.4-19.9-9.7l-0.7 10.9h-13.2l8.3-54.1h9.9q-2.8 22.4 9.3 34.1 12.2 11.4 32.2 11.4 9.9 0 19-3.6 9-3.8 15.2-10.9 6.3-7.1 8.2-17.3 2.1-11.4-2.7-19-4.7-7.6-13.3-13.2-8.6-5.6-18.6-10.7-8.9-4.3-17.4-9.1-8.5-4.8-15.3-10.9-6.4-6.4-9.7-15-3-8.6-0.8-20.8 1.2-6.6 4.9-14.3 3.7-7.6 10.5-14.4 7.1-7.1 17.8-11.5 11-4.5 26.5-4.5 9.6 0 21.1 2.8 11.7 2.5 20.7 10.1l1-10.9h12.9zm136.8 123.9h-36.3q0-4.3 0.4-7.6 0.3-3.3 0.5-6.9-10.3 8.7-21.3 13.8-10.8 4.8-22 4.8-19.3 0-27.1-8.6-7.8-8.9-5.5-21.6 2.1-11.7 10.8-20.1 8.9-8.6 21.3-14 12.7-5.5 26.6-8.1 14.3-2.8 26.9-2.5l2.9-15.8q1.6-8.9 1.5-16.7-0.1-7.9-4.3-13-4.1-5.1-15.2-5.3-7.4-0.3-15.8 2.8-8.2 3-13 10.4 1.6 2 1.6 4.8 0.3 2.6-0.1 4.8-0.6 3.1-3.8 7.2-3.3 3.8-9.6 3.5-5.3 0-7.4-3.5-2.1-3.9-1.2-8.9 1.5-8.7 9.1-15.5 7.9-6.9 20.1-10.9 12.1-4.1 26.6-4.1 21.3 0 29.4 11.4 8.1 11.2 3.4 35.6-1.7 9.4-3.4 19-1.7 9.4-3.7 19.1-1.8 9.4-3.5 19-0.7 4.1-1.7 8.1-1 4.1-2.5 9.2 4.7-0.3 9-0.5 4.6-0.3 9.2-0.5zm-27.2-62.3q-8.7 0.3-18.7 2.3-9.7 1.8-18.6 5.6-8.5 3.8-14.8 10.2-5.9 6.1-7.3 15-1.2 9.4 3.5 14.2 5.1 4.5 12.9 4.5 10.4 0 18.7-3.8 8.7-4 17.6-11.1 0.2-2.8 0.8-6.1 0.6-3.3 1.3-6.9 0.2-1.3 1.5-8.1 1.5-6.9 3.1-15.8zm14.5-120.3l-33.3 26.9-6.1-5.8 27.6-34.3q4.8-5.6 8.5-6.4 3.8-1 6.1 0 2.4 1 2.8 1.6 0.9 0.7 1.7 3.3 0.8 2.5-0.7 6.3-1.1 3.6-6.6 8.4zm6.1 182.6h-36.4q0.1-4.4 0.4-7.7 0.4-3.3 0.5-6.8-10.2 8.6-21.3 13.7-10.8 4.8-21.9 4.8-19.3 0-27.2-8.6-7.7-8.9-5.4-21.6 2.1-11.7 10.7-20.1 9-8.6 21.4-13.9 12.7-5.6 26.6-8.1 14.2-2.8 26.8-2.6l2.9-15.7q1.6-8.9 1.5-16.8-0.1-7.9-4.2-12.9-4.2-5.1-15.3-5.4-7.3-0.2-15.7 2.8-8.2 3.1-13.1 10.4 1.7 2.1 1.7 4.9 0.3 2.5-0.2 4.8-0.5 3-3.8 7.1-3.2 3.8-9.5 3.5-5.4 0-7.5-3.5-2.1-3.8-1.2-8.9 1.6-8.6 9.2-15.5 7.8-6.8 20-10.9 12.2-4.1 26.6-4.1 21.4 0 29.5 11.5 8.1 11.1 3.4 35.5-1.7 9.4-3.5 19.1-1.7 9.3-3.7 19-1.7 9.4-3.5 19-0.7 4.1-1.7 8.2-1 4-2.4 9.1 4.6-0.2 9-0.5 4.6-0.3 9.2-0.5zm-27.3-62.2q-8.7 0.2-18.7 2.3-9.7 1.7-18.5 5.6-8.6 3.8-14.8 10.1-6 6.1-7.3 15-1.2 9.4 3.5 14.2 5 4.6 12.9 4.6 10.4 0 18.7-3.8 8.6-4.1 17.5-11.2 0.3-2.8 0.9-6.1 0.6-3.3 1.2-6.8 0.3-1.3 1.5-8.2 1.5-6.8 3.1-15.7zm14.6-120.4l-33.4 26.9-6-5.8 27.5-34.3q4.9-5.6 8.6-6.3 3.7-1.1 6.1 0 2.3 1 2.7 1.5 0.9 0.7 1.7 3.3 0.8 2.5-0.6 6.3-1.2 3.6-6.6 8.4zm105 186.7q-17 0-30.1-7.7-12.8-7.8-18.8-22.3-5.7-14.7-2-35.3 2.4-13.2 9.5-25.7 7.1-12.4 17.6-22.3 10.7-10.2 23.9-16 13.3-5.8 28-5.8 14.2 0 23.9 4.3 9.8 4.3 14.4 11.4 4.5 7.1 3 15.5-1 5.6-4.8 9.6-3.7 3.9-9.6 3.9-6.4 0.2-8.4-3.9-1.8-4.3-1.2-7.6 0.5-2.5 1.7-5 1.3-2.8 4-5.1-0.9-6.1-5.5-8.9-4.5-3.1-10-3.8-5.1-1-8.7-1-17.2 0-31.7 13.9-14.2 13.7-19 40.1-3.1 17.1-0.2 30.3 3.2 13.2 11.7 20.8 8.6 7.4 21.5 7.4 12 0 24.1-6.4 12-6.3 19.8-15.5l5.7 5.1q-8.6 10.7-19.2 17.3-10.3 6.6-20.8 9.6-10.2 3.1-18.8 3.1zm-6.7 0q-17 0-30.1-7.7-12.8-7.8-18.8-22.3-5.7-14.7-2-35.3 2.4-13.2 9.5-25.7 7.1-12.4 17.6-22.3 10.7-10.2 23.9-16 13.3-5.8 28-5.8 14.2 0 23.9 4.3 9.9 4.3 14.4 11.4 4.5 7.1 3 15.5-1 5.6-4.8 9.6-3.7 3.9-9.6 3.9-6.4 0.2-8.4-3.9-1.8-4.3-1.2-7.6 0.5-2.5 1.7-5 1.3-2.8 4-5.1-0.9-6.1-5.5-8.9-4.5-3.1-10-3.8-5.1-1-8.7-1-17.2 0-31.7 13.9-14.2 13.7-19 40.1-3.1 17.1-0.2 30.3 3.2 13.2 11.7 20.8 8.6 7.4 21.6 7.4 11.9 0 24-6.4 12-6.3 19.8-15.5l5.7 5.1q-8.6 10.7-19.2 17.3-10.3 6.6-20.8 9.6-10.2 3.1-18.8 3.1zm168.9-4.1l1.4-7.6q7.9 0 11.6-3.8 3.8-4.1 5.6-11 1.8-7.1 3.4-16.2l6.5-35.6q4-21.8-1.1-32.7-4.9-10.9-19.9-10.7-9.5 0.3-19.4 4.6-9.7 4.3-16.5 11.2l-13.7 74.9q-0.9 5.1-1.9 9.1-0.9 3.8-2.5 8.1 4.1-0.2 8-0.2 4.1-0.3 8.2-0.5l-1.9 10.4h-51.8l1.4-7.6q7.8 0 11.6-3.8 3.8-4.1 5.5-11 2.1-7.1 3.7-16.2l21.9-120.1q0.7-4.1 1.4-7.6 0.9-3.8 2.4-8.9-4.7 0.2-9.3 0.5-4.3 0.2-9 0.5l2-10.7q11.2 0 17.4-1 6.6-1 9.9-2.5 3.6-1.5 5.7-3.3h7.3l-14.1 77.4q6.5-4.8 14-8.4 7.8-3.8 15.6-6 8-2.3 15.1-2.3 22.1 0 29.2 13.9 7.4 13.7 2.4 42.9l-8.4 47.3q-0.9 5.1-1.9 9.1-0.7 3.8-2.2 8.1 4.1-0.2 7.9-0.2 4.1-0.3 8.2-0.5l-1.9 10.4zm-6.7 0l1.4-7.6q7.9 0 11.6-3.8 3.8-4.1 5.6-11 1.8-7.1 3.4-16.2l6.5-35.6q4-21.8-1.1-32.7-4.9-10.9-19.9-10.7-9.5 0.3-19.4 4.6-9.7 4.3-16.5 11.2l-13.6 74.9q-1 5.1-2 9.1-0.9 3.8-2.5 8.1 4.2-0.2 8-0.2 4.1-0.3 8.2-0.5l-1.9 10.4h-51.8l1.4-7.6q7.8 0 11.6-3.8 3.8-4.1 5.5-11 2.1-7.1 3.7-16.2l21.9-120.1q0.7-4.1 1.4-7.6 0.9-3.8 2.4-8.9-4.7 0.2-9.3 0.5-4.3 0.2-9 0.5l2-10.7q11.2 0 17.4-1 6.6-1 9.9-2.5 3.6-1.5 5.7-3.3h7.3l-14.1 77.4q6.5-4.8 14-8.4 7.8-3.8 15.6-6 8-2.3 15.1-2.3 22.1 0 29.2 13.9 7.5 13.7 2.4 42.9l-8.3 47.3q-1 5.1-2 9.1-0.7 3.8-2.2 8.1 4.1-0.2 7.9-0.2 4.1-0.3 8.2-0.5l-1.9 10.4zm268.3 0h-110q2.5-13.5 8.4-23.9 6.2-10.4 14.9-19 8.8-8.9 19.1-17 10.7-8.4 21.7-17.6 19.4-15.7 29.2-29.2 9.8-13.4 12.1-25.9 1.8-9.6 0.6-18.5-0.9-9.1-6.7-15-5.8-5.8-18-5.8-10.4 0-19.5 5.3-9 5.1-13.2 12.7 2.1 2.6 2.5 5.6 0.5 2.8 0 5.6-0.4 2.3-2.2 5.1-1.5 2.8-4.6 4.8-3.2 2-7.8 2-5.5-0.2-7.8-4.3-2.3-4.1-1.3-9.6 1-5.4 5.4-11.7 4.5-6.6 12.1-12.2 7.9-5.9 18.5-9.4 10.6-3.8 23.8-3.8 10.2 0 19.1 2.5 9.2 2.3 15.9 7.6 6.6 5.4 9.3 14.3 3 8.6 0.7 21.5-1.2 6.4-5.3 13.8-3.9 7.3-11.6 16-7.3 8.3-18.5 18-11.1 9.4-26.8 20.5-19.9 14.3-33.4 27-13.2 12.4-16.6 21.3l44.8 1.3q12.4 0.2 21.8 0 9.7-0.3 15.7-3.8 6.3-3.9 8.1-13.8h7.6zm-6.7 0h-110q2.5-13.4 8.4-23.8 6.2-10.4 14.9-19.1 8.8-8.9 19.1-17 10.7-8.4 21.7-17.5 19.4-15.7 29.2-29.2 9.8-13.5 12.1-25.9 1.8-9.7 0.6-18.5-0.9-9.2-6.7-15-5.8-5.9-18-5.9-10.4 0-19.5 5.4-9 5-13.2 12.7 2.1 2.5 2.5 5.5 0.5 2.8 0 5.6-0.4 2.3-2.2 5.1-1.5 2.8-4.6 4.8-3.2 2.1-7.8 2.1-5.5-0.3-7.8-4.3-2.3-4.1-1.3-9.7 1-5.3 5.4-11.7 4.5-6.6 12.1-12.2 7.9-5.8 18.5-9.4 10.6-3.8 23.8-3.8 10.2 0 19.1 2.6 9.2 2.3 15.9 7.6 6.6 5.3 9.3 14.2 3 8.6 0.7 21.6-1.2 6.3-5.3 13.7-3.9 7.4-11.6 16-7.3 8.4-18.5 18-11.1 9.4-26.8 20.6-19.9 14.2-33.4 26.9-13.2 12.5-16.6 21.3l44.8 1.3q12.4 0.3 21.8 0 9.7-0.2 15.7-3.8 6.3-3.8 8.1-13.7h7.6zm134.9-49l-3.8 21.3q-1 5.1-2.1 9.7-0.8 4.5-2.2 8.3 5.1-0.2 9.9-0.2 4.9-0.3 9.7-0.5l-1.8 10.4h-63.8l1.5-8.4h1.8q8.8-0.7 13.8-4.8 5.1-4.1 7.9-10.9 2.7-6.9 4.5-16.3l1.5-8.6h-77.2l2.3-12.5 113.8-120.3h8.4l-21.4 117.5 25.6 0.3-2.7 15zm-5.5-96.8h-0.5l-74.6 80.3 60.3 0.7zm-1.2 96.8l-3.8 21.3q-1 5.1-2 9.7-0.9 4.5-2.3 8.3 5.1-0.2 9.9-0.2 4.9-0.3 9.8-0.5l-1.9 10.4h-63.8l1.6-8.4h1.7q8.8-0.7 13.9-4.8 5-4.1 7.8-10.9 2.8-6.9 4.5-16.3l1.5-8.6h-77.2l2.3-12.5 113.8-120.3h8.4l-21.4 117.6 25.6 0.2-2.7 15zm-5.5-96.8h-0.5l-74.5 80.3 60.2 0.7zm93.2 149.9q-4.7-0.5-6.2-3.6-1.4-3-0.6-7.6 1-5.6 5.4-14.5 4.7-8.9 10.5-18.8 6-10.1 10.8-18.5 7-11.9 16.7-29 9.7-17 21-35.8 11.6-19 23.1-36.5l-67.1 0.2q-10.2 0.3-16.8 4.8-6.5 4.6-8.3 15h-6.1l6.8-37.6h106.4l-3.1 17.3q-12.7 19.1-22.7 36.3-9.7 17.3-18.2 34.8-8.5 17.3-16.8 36.3-8.3 19.1-18 41.7-2.6 6.1-6.8 10.9-3.9 4.8-10 4.6zm-6.7 0q-4.7-0.5-6.2-3.6-1.4-3-0.6-7.6 1-5.6 5.4-14.5 4.7-8.9 10.5-18.8 6-10.1 10.8-18.5 7-11.9 16.7-29 9.7-17 21-35.8 11.6-19 23.1-36.5l-67.1 0.2q-10.2 0.3-16.8 4.8-6.4 4.6-8.3 15h-6.1l6.8-37.6h106.4l-3.1 17.3q-12.7 19.1-22.6 36.3-9.8 17.3-18.3 34.8-8.5 17.3-16.8 36.3-8.3 19.1-18 41.7-2.6 6.1-6.8 10.9-3.9 4.8-10 4.6z"/>
		</g>
	</g>
</svg>