<svg width="134" height="108" viewBox="0 0 134 108" fill="none" xmlns="http://www.w3.org/2000/svg">
<path d="M109.92 61.3709L106.315 55.464L103.81 50.708L99.9346 42.9901L97.9713 38.7927L96.4141 35.2045L93.2153 27.7236L89.7456 18.9394L87.2576 12.8632L85.7343 9.22426L84.1772 10.0536L82.6201 11.1707L80.826 12.8632L79.5566 14.3357L78.3041 15.9267L76.9163 18.2116L75.9515 20.3272L75.5961 21.5289L75.2745 22.2906L75.0206 22.7645L72.8711 28.4006L72.8373 28.5021L71.0093 30.1439L69.9938 28.4683L68.9106 26.8265L67.7258 25.1509L65.9148 22.8999L63.5792 20.2934L61.3281 18.1269L59.4156 16.519L57.4353 15.0127L54.8627 13.3032L52.3746 11.6615L49.6497 10.0705L46.6708 8.4457L43.4043 6.88858L40.6285 5.56841L38.8345 4.67137L37.8359 4.01128L37.4127 3.85896L28.07 0.863188L27.0206 1.48942L28.7809 4.11284L29.4409 5.21298L30.1518 6.36389L30.9473 7.73484L31.929 9.56277L33.1306 11.9662L33.723 13.2694L34.2139 14.3018L25.7512 22.5614L19.4043 23.1707L15.4438 23.4076L13.1758 24.5247L15.4776 29.0099L18.0503 34.4937L19.7597 38.725L21.3845 42.9224L23.7202 49.8449L24.8373 53.6192L26.0897 58.1382L27.4099 63.2666L28.6962 68.6319L29.6271 72.7955L30.7611 78.1946L31.3873 81.1566L34.3323 79.5994L38.4621 77.8731L39.4607 77.4838L40.1208 79.4302L43.6243 88.4175L79.3535 84.2877L81.5199 88.1298L90.795 86.048L92.1828 83.6615L87.6299 83.543L85.8697 83.4076L86.5129 80.7673L88.1038 77.1453L91.0319 72.8293L95.534 68.2764L101.441 64.3329L107.128 62.1664L109.92 61.3709Z" fill="white"/>
<path d="M124.547 72.8801L117.912 59.78L113.596 50.8942L109.923 43.701L107.046 39.7066L104.643 37.1509L101.613 34.8322L99.6157 33.7151L98.5663 33.0042L98.0078 33.3258L101.765 41.0776L108.721 53.9408L114.476 62.5726L114.645 63.6051L108.569 64.6544L106.572 65.2807L104.812 66.2454L113.444 77.1114L117.032 81.8336L117.827 82.7137L122.786 81.1058L124.157 81.4274L127.272 82.9506L128.541 81.512L124.547 72.8801Z" fill="white"/>
<path d="M93.7935 83.2553L94.0643 83.0522C95.4861 81.9351 96.7216 80.9704 99.8189 79.6333C103.069 78.2116 106.741 77.3992 110.431 77.2807C111.514 77.2468 112.614 77.2807 113.731 77.3315L104.981 66.1608C102.51 67.1932 100.157 68.5811 98.0249 70.2567C94.826 72.7786 92.1179 75.9267 90.2054 79.3286C89.2407 81.055 88.5806 82.4937 88.1067 83.543C87.9543 83.8815 87.8189 84.1862 87.6835 84.457C87.4466 84.9647 87.2604 85.3371 87.0742 85.5741L90.8147 85.9295C91.6271 85.0663 92.8627 83.9662 93.7935 83.2384" fill="#FABAAE"/>
<path d="M115.416 83.3399C110.796 84.6432 106.074 85.9633 101.504 86.9619L122.847 88.976L117.888 82.6629C117.075 82.8829 116.263 83.1199 115.433 83.3568" fill="#FABAAE"/>
<path d="M116.721 81.1735L115.215 79.244C113.759 79.0409 112.338 78.9224 110.933 78.9055C110.848 78.9055 110.764 78.9055 110.679 78.9055C107.192 78.9055 103.841 79.5317 100.71 80.7504C99.1022 81.3766 97.5282 82.1721 96.0557 83.103C95.0063 83.78 93.9908 84.5247 93.043 85.354C99.0176 84.1185 105.246 83.086 111.288 82.0875C113.082 81.7828 114.91 81.4781 116.738 81.1735" fill="#FABAAE"/>
<path d="M24.2131 19.9718L24.8055 21.6474L41.6292 69.512L84.0947 75.3343L45.8605 63.0127L45.8267 62.8434C45.7928 62.5896 41.9508 37.1678 37.5672 23.4922C36.4332 19.9549 35.2653 16.9083 34.1144 14.3018C29.5446 12.0338 24.5347 10.0028 20.5234 9.49506L24.1962 19.9718H24.2131Z" fill="#A1D7E6"/>
<path d="M78.0693 79.8195C75.6997 78.5501 73.1948 77.5176 70.6053 76.7729C68.0157 76.0113 65.3415 75.4528 62.6842 75.1481C57.3359 74.5049 51.8859 74.6911 46.4529 75.6897C43.6603 76.2144 41.003 76.9422 38.5319 77.8223C38.3457 77.89 38.1596 77.9577 37.9734 78.0423C37.5333 78.2116 37.0594 78.3808 36.6194 78.5839L35.6715 78.9901L34.2667 79.6502L32.8789 80.3611L31.9818 80.8688L31.4064 81.2073L30.2555 75.7066C29.68 72.9817 29.0876 70.3244 28.4952 67.7856C25.601 55.2948 22.5714 45.4274 18.9663 36.7278C18.7801 36.2877 18.594 35.8646 18.4078 35.4245C18.0693 34.6291 17.7139 33.7997 17.3584 32.9873L16.5122 31.1425C16.4275 30.9732 16.3598 30.804 16.2752 30.6516C16.0721 30.2116 15.8521 29.7546 15.632 29.3145L14.5658 27.1819C14.3119 26.6911 14.058 26.1834 13.7872 25.6925L13.161 24.5585L13.9057 24.3385C14.1257 24.2877 14.3457 24.237 14.5658 24.1693C14.955 24.0677 15.3782 23.9662 15.7844 23.8815L16.7153 23.6953L17.68 23.543C18.1708 23.4584 18.6955 23.3907 19.1863 23.3399L19.5587 23.2891C21.4713 23.0691 23.3838 23.0014 25.2794 23.0522L24.2131 20.0056C21.1328 19.9379 18.0016 20.2087 14.955 20.835C12.247 21.4274 8.57422 22.7983 8.57422 22.7983L11.0961 27.4358C11.4854 28.1636 11.8746 28.9253 12.2301 29.67C12.467 30.1269 12.6871 30.6009 12.924 31.0409C13.2794 31.7856 13.6349 32.5303 13.9734 33.275C14.1934 33.7659 14.4304 34.2567 14.6504 34.7306C18.6786 43.6671 22.1144 53.7884 25.4487 66.5839C26.2273 69.5797 26.972 72.5924 27.5305 74.8773L28.5122 79.0409L29.6969 84.22C29.7308 84.457 29.917 84.5416 29.9847 84.5585C29.9847 84.5585 30.1201 84.6093 30.2216 84.5585C30.2893 84.5416 30.4078 84.4739 30.4078 84.4739L32.0834 83.4076C32.0834 83.4076 32.2526 83.3061 32.3373 83.2553C32.5065 83.1537 32.6588 83.0353 32.845 82.9337L33.302 82.6629C33.759 82.3752 34.2498 82.1044 34.7406 81.8505L35.0961 81.6643C36.5686 80.9027 37.7195 80.378 38.8366 79.9379C41.223 78.9563 43.7957 78.1777 46.6899 77.5515C52.0044 76.4175 57.4205 76.1128 62.7519 76.6544C68.2526 77.213 73.2287 78.6347 77.5277 80.8688C79.1863 81.7489 79.5079 81.9013 79.7787 81.5289L79.8972 81.3597L79.8634 81.1735C79.8295 81.0381 79.7787 80.7842 78.0862 79.8533" fill="#066488"/>
<path d="M116.924 50.9281C116.738 50.5388 116.568 50.1664 116.382 49.7771C115.282 47.4584 114.148 45.0381 112.828 42.7362C111.999 41.2807 111.152 40.0113 110.238 38.8096L109.883 38.3357C109.798 38.2341 109.714 38.1326 109.629 38.031C109.578 37.9803 109.544 37.9295 109.494 37.8787L108.715 36.9817C108.715 36.9817 108.631 36.8801 108.58 36.8293C108.495 36.7278 108.394 36.6262 108.292 36.5247L107.023 35.2891C104.772 33.1735 102.097 31.4302 99.1185 30.0931C98.1707 29.67 97.1891 29.2976 96.2074 28.976C94.2271 24.6262 92.3654 20.3949 90.6728 16.4683L87.9817 10.3075L86.797 7.61636C86.797 7.61636 86.7631 7.53173 86.6616 7.31171C86.5769 7.09168 86.5092 7.14245 86.3569 7.21015L86.103 7.32863L84.749 7.98871C84.6305 8.05642 84.5121 8.12412 84.4105 8.17489L84.292 8.24259C84.292 8.24259 84.1228 8.34415 84.0381 8.39492C83.8689 8.49647 83.7166 8.5811 83.5473 8.69958L83.2765 8.90268C82.9042 9.15656 82.5318 9.42736 82.1933 9.71509C80.5685 11.0183 79.1129 12.6262 77.725 14.6234C77.5896 14.8096 77.4542 15.0127 77.3357 15.1989L77.268 15.3173C77.268 15.3173 77.1665 15.4697 77.1157 15.5543C77.0142 15.7066 76.9295 15.859 76.828 16.0113C76.7603 16.1467 76.6757 16.2652 76.608 16.3836C76.4218 16.7221 76.2187 17.0606 76.0494 17.4161C75.5586 18.3639 75.1355 19.3625 74.797 20.3949L74.7631 20.4965C74.6954 20.6996 74.6446 20.8858 74.6108 21.0889C74.5769 21.292 74.5431 21.4612 74.5262 21.5966C74.4923 21.8843 74.4415 22.3582 74.8477 22.4429C75.2709 22.5444 75.4401 22.0874 75.5247 21.8336C75.5755 21.6982 75.6263 21.5458 75.6771 21.3597L75.8802 20.7504C76.2356 19.7348 76.6587 18.787 77.1496 17.89L77.3357 17.5515L77.9451 16.536C78.0466 16.4006 78.1312 16.2482 78.2328 16.1128C78.4359 15.8082 78.6221 15.5205 78.859 15.2327C79.4853 14.3695 80.1961 13.5571 80.8731 12.8293L81.7194 12L82.5995 11.2214L83.5304 10.5106L83.852 10.2905C83.852 10.2905 84.0212 10.189 84.0889 10.1213C84.2243 10.0367 84.3597 9.93512 84.4951 9.86742L85.206 9.47814C85.3245 9.41044 85.4429 9.35966 85.5783 9.29196C85.6291 9.27503 85.6799 9.24118 85.7307 9.22426L88.8788 17.0776C90.3513 20.7673 92.0607 25.0494 93.7871 29.196C95.6658 33.732 97.3922 37.6587 99.0508 41.2299C101.2 45.8336 103.079 49.5571 104.975 52.9929L105.11 53.2299C106.126 55.0409 107.175 56.9027 108.292 58.6798L109.155 60.1015L109.985 61.354C109.985 61.354 109.832 61.3879 109.748 61.4048L108.749 61.6079L107.92 61.811C106.752 62.0987 105.652 62.4542 104.653 62.8265C102.605 63.5882 100.574 64.6206 98.5769 65.9069C94.8026 68.3611 91.5022 71.6615 89.048 75.4528C87.1862 78.33 86.3569 80.835 85.9845 82.426C85.6122 84.0339 85.5614 85.2694 85.8322 85.7602C85.9507 85.9464 86.12 86.048 86.3231 86.048H86.3569C86.7462 86.031 87.0678 85.6248 87.5924 84.4739C87.7109 84.2031 87.8633 83.8984 88.0156 83.5599C88.4895 82.5106 89.1496 81.055 90.1143 79.3456C92.0269 75.9436 94.718 72.8124 97.9338 70.2736C101.268 67.6502 105.11 65.7546 109.071 64.7898L109.443 64.6883L109.832 64.6037C109.934 64.5867 110.035 64.5698 110.12 64.536C110.289 64.5021 110.442 64.4683 110.594 64.4344L111.576 64.2821L111.999 64.2313C112.286 64.1975 112.574 64.1636 112.862 64.1298L114.673 63.8759C114.944 63.8251 115.028 63.7236 115.079 63.5882C115.147 63.4358 114.961 63.165 114.961 63.165L111.796 58.4937L110.442 56.3441C110.323 56.1749 110.222 55.9887 110.103 55.8195C109.917 55.5317 109.714 55.2271 109.544 54.9055L108.664 53.433C106.481 49.7602 104.315 45.8166 102.08 41.3822C100.693 38.6234 99.3386 35.8307 98.0353 33.055C99.5755 33.7997 101.065 34.6798 102.436 35.6784L102.893 36C103.011 36.0846 103.164 36.1862 103.299 36.3216L104.552 37.3879C104.552 37.3879 104.704 37.5402 104.788 37.6079C104.839 37.6587 104.89 37.7094 104.941 37.7433L105.736 38.5388C105.922 38.708 106.092 38.9111 106.278 39.1142C106.329 39.1819 106.396 39.2496 106.447 39.3173L107.175 40.1467C107.632 40.7221 108.089 41.3145 108.495 41.9238C110.222 44.4118 111.66 47.2722 112.98 49.9972C115.621 55.4133 118.498 61.2525 121.528 67.3456L125.877 76.0621L128.399 81.0889C128.399 81.0889 128.467 81.2243 128.501 81.275C128.128 81.1058 127.604 80.8858 126.791 80.5303C124.997 79.7856 123.186 79.1594 121.443 78.6685C117.719 77.6023 113.996 77.1284 110.357 77.2638C106.667 77.3992 102.994 78.2116 99.7448 79.6164C96.6475 80.9535 95.4119 81.9182 93.9902 83.0353L93.7194 83.2384C92.3146 84.3385 90.1989 86.2849 89.9281 86.9619C89.8266 87.2327 89.8604 87.5374 90.0466 87.7574C90.3513 88.1636 91.0283 88.3836 91.9761 88.3836C92.1961 88.3836 92.4331 88.3836 92.67 88.3498C99.7278 87.6897 107.666 85.4725 115.333 83.3061C118.007 82.5614 120.529 81.8505 122.932 81.2243C123.999 81.6135 125.065 82.0536 126.097 82.5275L127.299 83.103L128.89 83.9154C129.702 84.3385 130.498 84.7786 131.361 85.2525C131.7 85.4386 132.055 85.6417 132.41 85.8279L133.528 86.4372L116.839 50.8942L116.924 50.9281ZM111.271 82.0874C105.229 83.086 99.0001 84.1354 93.0254 85.354C93.9902 84.5247 95.0057 83.763 96.0381 83.103C97.5106 82.1721 99.0678 81.3766 100.693 80.7504C103.824 79.5317 107.175 78.9055 110.662 78.9055C110.746 78.9055 110.831 78.9055 110.915 78.9055C114.08 78.9224 117.381 79.464 120.732 80.4795C117.584 81.0381 114.385 81.5628 111.254 82.0874" fill="#036488"/>
<path d="M20.9641 64.4852C20.0671 60.8463 19.0516 57.2243 17.9176 53.67C16.7836 50.1156 15.5311 46.6121 14.1433 43.1763C13.6524 41.9238 13.1447 41.0099 12.7046 40.4175C12.2646 39.8082 11.9091 39.5204 11.6553 39.5204C11.1475 39.5204 11.0798 40.6714 11.7907 42.8547C13.9402 49.4894 16.6313 56.8519 19.0177 64.3667C21.4211 71.8815 23.5199 79.5317 24.8062 86.4711C24.9754 87.3173 25.2462 87.2835 25.1108 86.4203C24.1122 79.1425 22.7582 71.763 20.9641 64.4852Z" fill="#036488"/>
<path d="M77.5774 88.5021C73.8369 88.6037 69.9949 88.8406 66.1359 89.213C62.4632 89.5853 58.6042 90.0931 54.6606 90.7362C51.1233 91.3117 47.3997 92.0226 43.3038 92.9027L41.1374 93.3766L40.8835 92.3949C40.3249 90.2793 39.7156 88.4683 39.0217 86.8434C38.5139 85.6417 37.8539 84.6093 37.1938 83.9323C36.6352 83.3738 36.0767 83.0691 35.7382 83.1707C35.6367 83.2045 35.552 83.2722 35.4843 83.3738C35.3828 83.5599 35.3828 83.8646 35.5013 84.2877C35.6367 84.8293 35.9413 85.591 36.3475 86.6403V86.6742C37.0414 88.3667 37.5661 90.2285 37.9893 91.8195L39.1402 96.3893C39.1402 96.3893 39.1571 96.4908 39.2417 96.5247H39.3771L42.6606 95.7461C44.2178 95.3738 45.7918 95.0014 47.3828 94.6121C49.6846 94.0536 52.0541 93.4951 54.4068 92.9365C58.9935 91.8872 62.7509 91.1086 66.2544 90.5162C70.3165 89.8223 74.1247 89.3484 77.5943 89.0945C78.3221 89.0437 78.3898 88.8745 78.3898 88.756C78.3898 88.6375 78.2883 88.4852 77.5774 88.5021Z" fill="#066488"/>
<path d="M78.7615 25.9972C78.1522 26.488 77.7122 27.2496 77.4414 28.2821C77.2552 28.9591 77.1706 29.6869 77.1029 30.3131C77.0859 30.4993 77.069 30.6685 77.0352 30.8378C77.0352 30.9563 77.0859 31.0578 77.2044 31.0748C77.2213 31.0748 77.2383 31.0748 77.2552 31.0748C77.3398 31.0748 77.4244 31.024 77.4583 30.9394C77.9153 29.6869 78.6431 28.5529 79.3539 27.4528C79.4893 27.2327 79.6247 27.0296 79.7601 26.8096C79.9294 26.5557 79.8786 26.268 79.6416 26.048C79.4216 25.8449 79.0323 25.7602 78.7446 25.9972" fill="#066488"/>
<path d="M81.9451 28.4852C80.8449 29.2468 79.8633 30.5162 79.2032 32.0564C78.6785 33.2581 78.3061 34.6629 78.0692 36.3724C78.0353 36.5416 78.1369 36.6432 78.2215 36.6601H78.2554C78.34 36.6601 78.4415 36.5924 78.4754 36.457C78.8139 35.2214 79.3894 33.952 80.1848 32.6996C80.8618 31.6333 81.6912 30.5839 82.7067 29.5346C83.1298 29.1114 83.1298 28.6883 82.9437 28.4513C82.7913 28.2482 82.419 28.1298 81.9451 28.4513" fill="#066488"/>
<path d="M80.8459 35.3738C80.3551 36.2877 80.0335 37.2694 79.7288 38.1326L79.6611 38.3357C79.6273 38.4542 79.6611 38.5726 79.7627 38.6234C79.7965 38.6234 79.8135 38.6403 79.8473 38.6403C79.9319 38.6403 79.9996 38.5896 80.0504 38.5219C80.4735 37.7602 81.0321 36.9817 81.7599 36.1354C82.3861 35.4076 83.08 34.7475 83.774 34.0705C84.0786 33.7828 84.0617 33.4104 83.8924 33.1904C83.7232 32.9704 83.3847 32.8011 82.9954 33.0042C81.963 33.5628 81.2352 34.6121 80.829 35.3738" fill="#066488"/>
<path d="M81.9935 48.2539C81.9596 48.4231 82.0273 48.5247 82.1289 48.5585C82.1458 48.5585 82.1627 48.5585 82.1797 48.5585C82.2643 48.5585 82.3489 48.5078 82.3997 48.3724C82.8228 47.2384 83.466 46.1044 84.3292 44.8858C85.0739 43.8533 85.8694 42.9224 86.851 41.8223C87.2403 41.3822 87.2234 40.976 87.0203 40.756C86.8341 40.5529 86.4618 40.4852 86.0217 40.7898C85.0062 41.5515 84.0753 42.7193 83.3644 44.1749C82.8059 45.3089 82.3658 46.5952 81.9766 48.2539" fill="#066488"/>
<path d="M37.5835 23.4922C41.9671 37.1678 45.8092 62.5896 45.843 62.8434L45.8769 63.0127L86.4805 76.0959C86.4805 76.0959 86.379 75.385 86.1251 74.8096C86.7683 73.3032 87.5976 71.7461 88.6977 69.952C89.8656 68.0395 91.0673 66.33 92.2351 64.9083C92.4721 64.6206 92.6244 64.3667 92.709 64.1467C92.8106 63.842 92.7598 63.6559 92.709 63.5543C92.6413 63.4527 92.5398 63.385 92.4213 63.3681C92.1674 63.3343 91.8289 63.4866 91.4735 63.7913C90.1195 64.9929 88.9008 66.7701 87.7499 69.2073C87.6992 69.3258 87.6314 69.4612 87.5807 69.5966C87.2252 68.4965 86.8529 67.3963 86.4975 66.2962C86.6836 65.5346 87.0391 64.8406 87.3437 64.299C87.7838 63.5374 88.3254 62.7588 89.0193 61.8956C90.1702 60.4908 91.5243 59.0691 93.0645 57.7151C93.3183 57.4781 93.5045 57.2581 93.623 57.055C93.7245 56.835 93.7584 56.6319 93.6738 56.4795C93.623 56.378 93.5384 56.2934 93.403 56.2595C93.166 56.1918 92.8275 56.2595 92.4551 56.5134C90.9488 57.4781 89.4594 59.0522 88.1561 61.0663C87.5637 61.9803 87.0391 62.9619 86.6498 63.9436C86.4467 64.4344 86.2944 64.8914 86.1759 65.3315C85.7697 64.079 85.3804 62.8265 84.9911 61.591C85.3973 60.7786 85.9389 59.9492 86.6667 59.0183C87.2929 58.2228 87.9869 57.4612 88.647 56.7165L89.1378 56.1749C89.5102 55.7687 89.4763 55.3625 89.2901 55.1425C89.1039 54.9394 88.7316 54.8547 88.3085 55.1425C87.3606 55.8364 86.4636 56.9196 85.7358 58.2736C85.3465 58.9845 85.008 59.7969 84.7034 60.677C84.4664 59.8984 84.2126 59.1368 83.9756 58.3752L83.7556 57.6812C84.2464 56.7673 84.8557 55.8025 85.6004 54.804C86.3621 53.7715 87.276 52.6883 88.3423 51.4866C88.7654 51.0127 88.7485 50.6234 88.5962 50.4034C88.5116 50.3018 88.3931 50.2172 88.2577 50.2003C88.0377 50.1664 87.7838 50.2511 87.5468 50.4203C86.4805 51.2158 85.5158 52.4344 84.6526 54.0423C84.1618 54.9563 83.7725 55.9041 83.4678 56.7673C83.1632 55.7687 82.8416 54.7701 82.52 53.7546C83.2309 52.2482 84.1787 50.8942 85.0588 49.7433C86.2267 48.22 87.4961 46.7306 88.63 45.4274C89.2055 44.7673 89.1716 44.2934 88.9685 44.0903C88.7993 43.9041 88.3931 43.8702 87.8346 44.3272C85.3635 46.4767 83.3663 49.9633 82.2492 52.9252C82.0123 52.1975 81.7922 51.4697 81.5553 50.7419C80.9968 49.0155 80.489 47.4415 79.9982 45.9859C80.3705 44.9365 80.8783 43.8702 81.5553 42.804C82.3 41.6192 83.2309 40.4513 84.331 39.3343C84.8049 38.8773 84.8219 38.4203 84.6357 38.1834C84.4834 37.9803 84.111 37.8787 83.5863 38.2172C82.3846 39.0465 81.3014 40.4344 80.5567 42.11C80.1843 42.9394 79.8797 43.8702 79.6427 44.9027C79.2027 43.6164 78.7795 42.4147 78.3733 41.2637C77.4424 38.6742 76.1731 35.2553 74.6498 31.921C71.8571 25.6925 67.7274 20.0226 62.7344 15.5374C62.4467 15.2666 62.1251 14.9958 61.7697 14.6911C61.4819 14.4372 61.1604 14.1834 60.7711 13.8787C60.4326 13.591 60.0602 13.3202 59.7556 13.1001C59.4678 12.897 59.197 12.6939 58.9262 12.5078L58.7231 12.3724C57.3014 11.3738 55.8797 10.4429 54.5087 9.61354C53.0701 8.73343 51.5976 7.90409 50.142 7.14245C48.6695 6.38082 47.1632 5.65303 45.623 4.99295C43.1857 3.94358 41.3747 3.43583 40.2915 3.18195C39.3945 2.97884 38.2267 2.79267 37.7697 3.08039C37.6343 3.16502 37.5496 3.31735 37.5496 3.46968C37.5496 3.67278 37.6681 3.99436 38.599 4.56982C39.3437 5.0268 40.5116 5.61918 42.6272 6.567C45.7245 7.97179 48.4664 9.39351 51.0391 10.8999C52.41 11.7123 53.8148 12.5755 55.1857 13.4894L55.355 13.6079C55.9812 14.031 56.6244 14.4542 57.2506 14.9111C57.623 15.165 57.9784 15.4358 58.2492 15.6389C58.5031 15.8251 58.757 16.0282 59.0109 16.2144L59.214 16.3836C61.7358 18.3808 64.1392 20.7504 66.3564 23.4415C68.6244 26.2172 70.52 29.0945 71.9925 31.9718C73.7358 35.323 75.2083 38.8096 76.3085 41.4838C77.4594 44.3103 78.6441 47.4076 80.0489 51.1819C81.3014 54.5839 82.5031 57.969 83.654 61.2355C84.7203 64.2313 85.7189 67.0748 86.7344 69.8674C86.8698 70.2398 86.9883 70.5106 87.0898 70.6968C86.6498 71.7461 86.2267 72.8801 85.8205 74.1326C84.1956 70.7306 79.6766 62.8265 71.7556 59.2045C62.2097 54.8378 54.1195 55.4471 52.5962 55.5994C52.19 53.7715 49.4819 42.1439 45.7922 32.7673C43.6597 27.3343 39.7161 19.244 35.7556 12.1354C32.6413 6.60085 28.6131 0 27.0221 0H26.9714C26.7344 0.0169252 26.6329 0.152327 26.5821 0.236953C26.4128 0.592384 26.7344 1.10014 27.6991 2.57264C29.6963 5.60226 33.843 11.9323 37.5496 23.5092" fill="#036488"/>
<path d="M43.6581 88.4513L40.1038 79.4133C39.6807 79.5656 39.2406 79.7348 38.8344 79.9041C37.7173 80.3441 36.5664 80.8688 35.0939 81.6305L34.7385 81.8166C34.2646 82.0705 33.7738 82.3413 33.2998 82.6291L32.8429 82.8999C32.6567 83.0014 32.5044 83.103 32.3351 83.2214C32.2505 83.2722 32.1659 83.323 32.0812 83.3738L30.4056 84.4401C30.4056 84.4401 30.2872 84.5078 30.2194 84.5247C30.1179 84.5585 29.9825 84.5247 29.9825 84.5247C29.9317 84.5078 29.7455 84.4231 29.6948 84.1862L28.51 79.0071L27.5283 74.8434C26.9698 72.5585 26.242 69.5458 25.4465 66.5501C22.2477 54.2962 18.9811 44.5134 15.1729 35.8646L0.667969 37.3202L27.833 108L83.1108 90.7532L79.4042 84.237L43.675 88.4344L43.6581 88.4513ZM24.8034 86.4711C23.5171 79.5317 21.4183 71.8646 19.0149 64.3667C16.6285 56.8519 13.9374 49.4894 11.7879 42.8547C11.0601 40.6714 11.1278 39.5205 11.6525 39.5205C11.9063 39.5205 12.2787 39.8082 12.7018 40.4175C13.125 41.0268 13.6496 41.9238 14.1405 43.1763C15.5114 46.5952 16.7808 50.0987 17.9148 53.67C19.0488 57.2243 20.0643 60.8463 20.9613 64.4852C22.7554 71.763 24.1264 79.1425 25.108 86.4203C25.2265 87.2835 24.9557 87.3174 24.8034 86.4711ZM77.5932 89.0945C74.1235 89.3484 70.3154 89.8223 66.2533 90.5162C62.7498 91.1255 58.9924 91.8872 54.4056 92.9365C52.053 93.4781 49.6835 94.0536 47.3817 94.6121C45.7907 95.0014 44.2166 95.3738 42.6595 95.7461L39.376 96.5247L39.3252 96.5585H39.2406C39.2406 96.5585 39.156 96.4231 39.1391 96.3893L37.9881 91.8195C37.565 90.2285 37.0234 88.3836 36.3633 86.6742V86.6403C35.9402 85.591 35.6355 84.8293 35.5001 84.2877C35.3817 83.8815 35.3647 83.5769 35.4832 83.3738C35.534 83.2722 35.6186 83.2045 35.7371 83.1707C36.0756 83.0691 36.6341 83.3568 37.1927 83.9323C37.8527 84.6093 38.4959 85.6418 39.0206 86.8434C39.6976 88.4683 40.3069 90.2962 40.8824 92.3949L41.1362 93.3766L43.3027 92.9027C47.4155 92.0226 51.1221 91.3117 54.6595 90.7362C58.6031 90.0931 62.462 89.5853 66.1348 89.213C69.9938 88.8406 73.8358 88.6037 77.5763 88.5021C78.3041 88.4852 78.3887 88.6375 78.3887 88.756C78.3887 88.8745 78.321 89.0437 77.5932 89.0945Z" fill="#F47964"/>
</svg>
